<?xml version="1.0" encoding="utf-8"?>
<!-- Generator: Adobe Illustrator 26.5.0, SVG Export Plug-In . SVG Version: 6.00 Build 0)  -->
<svg version="1.1" id="Layer_1" xmlns="http://www.w3.org/2000/svg" xmlns:xlink="http://www.w3.org/1999/xlink" x="0px" y="0px"
	 viewBox="0 0 75.8 70.7" style="enable-background:new 0 0 75.8 70.7;" xml:space="preserve">
<style type="text/css">
	.st0{fill:#76B3E1;}
	.st1{opacity:0.3;fill:url(#SVGID_1_);enable-background:new    ;}
	.st2{fill:#518AC8;}
	.st3{opacity:0.3;fill:url(#SVGID_00000031909080754124966960000005903096524846006971_);enable-background:new    ;}
	.st4{fill:url(#SVGID_00000142172302487003307870000015296661444738907777_);}
	.st5{fill:url(#SVGID_00000082367654305127941360000005263419752465458574_);}
</style>
<g>
	<path class="st0" d="M75.8,15.4c0,0-24.9-18.8-44.3-14.4l-1.7,0.5c-2.6,0.8-5,2.4-6.6,4.6c-0.3,0.4-0.5,0.8-0.7,1.2l-7.2,12.1
		l12.3,2.4c5.1,3.6,11.5,4.9,17.6,3.5l22,4.3L75.8,15.4z"/>
	
		<linearGradient id="SVGID_1_" gradientUnits="userSpaceOnUse" x1="11.6686" y1="826.6428" x2="70.6086" y2="855.2828" gradientTransform="matrix(1 0 0 1 0 -826.6)">
		<stop  offset="0.1" style="stop-color:#76B3E1"/>
		<stop  offset="0.3" style="stop-color:#DCF2FD"/>
		<stop  offset="1" style="stop-color:#76B3E1"/>
	</linearGradient>
	<path class="st1" d="M75.8,15.4c0,0-24.9-18.8-44.3-14.4l-1.7,0.5c-2.6,0.8-5,2.4-6.6,4.6c-0.3,0.4-0.5,0.8-0.7,1.2l-7.2,12.1
		l12.3,2.4c5.1,3.6,11.5,4.9,17.6,3.5l22,4.3L75.8,15.4z"/>
	<path class="st2" d="M23,15.1l-1.7,0.5c-7.9,2.6-10.6,9.9-6.1,16.4c5.4,6.7,14.3,9.6,22.5,7.1l29.5-9.6
		C67.3,29.5,42.4,10.7,23,15.1z"/>
	
		<linearGradient id="SVGID_00000013892877874710218390000016438004544188156083_" gradientUnits="userSpaceOnUse" x1="43.9905" y1="840.6671" x2="33.6705" y2="875.0372" gradientTransform="matrix(1 0 0 1 0 -826.6)">
		<stop  offset="0" style="stop-color:#76B3E1"/>
		<stop  offset="0.5" style="stop-color:#4377BB"/>
		<stop  offset="1" style="stop-color:#1F3B77"/>
	</linearGradient>
	<path style="opacity:0.3;fill:url(#SVGID_00000013892877874710218390000016438004544188156083_);enable-background:new    ;" d="
		M23,15.1l-1.7,0.5c-7.9,2.6-10.6,9.9-6.1,16.4c5.4,6.7,14.3,9.6,22.5,7.1l29.5-9.6C67.3,29.5,42.4,10.7,23,15.1z"/>
	
		<linearGradient id="SVGID_00000021839258205671101930000018243734539849286571_" gradientUnits="userSpaceOnUse" x1="7.3386" y1="855.662" x2="66.9387" y2="896.182" gradientTransform="matrix(1 0 0 1 0 -826.6)">
		<stop  offset="0" style="stop-color:#315AA9"/>
		<stop  offset="0.5" style="stop-color:#518AC8"/>
		<stop  offset="1" style="stop-color:#315AA9"/>
	</linearGradient>
	<path style="fill:url(#SVGID_00000021839258205671101930000018243734539849286571_);" d="M61.9,36.4c-5.4-6.8-14.3-9.6-22.6-7.1
		L9.8,38.8L0.5,55.3l52.8,9l9.5-16.8C64.7,44.3,64.5,40.2,61.9,36.4z"/>
	
		<linearGradient id="SVGID_00000151523670934393784090000009898025709861447350_" gradientUnits="userSpaceOnUse" x1="34.252" y1="860.5106" x2="10.202" y2="948.7006" gradientTransform="matrix(1 0 0 1 0 -826.6)">
		<stop  offset="0" style="stop-color:#4377BB"/>
		<stop  offset="0.5" style="stop-color:#1A336B"/>
		<stop  offset="1" style="stop-color:#1A336B"/>
	</linearGradient>
	<path style="fill:url(#SVGID_00000151523670934393784090000009898025709861447350_);" d="M52.6,52.9c-5.4-6.8-14.3-9.6-22.5-7.2
		L0.5,55.3c0,0,25,18.8,44.3,14.4l1.7-0.5C54.5,66.8,57.2,59.4,52.6,52.9z"/>
</g>
</svg>
